# xmcd CD database file generated by Grip 3.3.1
# 
# Track frame offsets:
#       150
#       6765
#       57217
#       126270
#       195309
#       235855
#       239663
#       258330
#       275319
#       332068
# 
# Disc length: 4510 seconds
# 
# Revision: 1
# Processed by: cddbd v1.5.2PL0 Copyright (c) Steve Scherf et al.
# Submitted via: Grip 3.3.1
# 
DISCID=86119c0a
DTITLE=Miles Davis - So What - The Complete 1960 Amsterdam Concerts [CD2
DTITLE=)
DYEAR=1960
DGENRE=Jazz
TTITLE0=Introduction by Norman Granz
TTITLE1=But Not For Me
TTITLE2=Walkin'
TTITLE3=All Of You
TTITLE4=So What
TTITLE5=The Theme
TTITLE6=Stardust
TTITLE7=Old Folks
TTITLE8=All Blues
TTITLE9=The Theme
EXTD=
EXTT0=
EXTT1=
EXTT2=
EXTT3=
EXTT4=
EXTT5=
EXTT6=
EXTT7=
EXTT8=
EXTT9=
PLAYORDER=
